HIERARCHY
ROOT Hips
{
	OFFSET -14.64140 90.27770 -84.91600
	CHANNELS 6 Xposition Yposition Zposition Zrotation Xrotation Yrotation
	JOINT Spine
	{
		OFFSET 0.00000 13.20850 -1.60436
		CHANNELS 3 Zrotation Xrotation Yrotation
		JOINT Spine1
		{
			OFFSET 0.00000 8.61716 0.00000
			CHANNELS 3 Zrotation Xrotation Yrotation
			JOINT Spine2
			{
				OFFSET 0.00000 8.61717 0.00000
				CHANNELS 3 Zrotation Xrotation Yrotation
				JOINT Spine3
				{
					OFFSET 0.00000 8.61717 0.00000
					CHANNELS 3 Zrotation Xrotation Yrotation
					JOINT Neck
					{
						OFFSET 0.00000 11.07920 1.10792
						CHANNELS 3 Zrotation Xrotation Yrotation
						JOINT Neck1
						{
							OFFSET 0.00000 7.08032 0.00000
							CHANNELS 3 Zrotation Xrotation Yrotation
							JOINT Head
							{
								OFFSET 0.00000 7.08031 0.00000
								CHANNELS 3 Zrotation Xrotation Yrotation
								End site
								{
									OFFSET 0.00000 0.00000 0.00000
								}
							}
						}
					}
					JOINT RightShoulder
					{
						OFFSET -0.01000 7.91373 5.19711
						CHANNELS 3 Zrotation Xrotation Yrotation
						JOINT RightArm
						{
							OFFSET -18.41580 0.00000 0.00000
							CHANNELS 3 Zrotation Xrotation Yrotation
							JOINT RightForeArm
							{
								OFFSET -29.11090 0.00000 0.00000
								CHANNELS 3 Zrotation Xrotation Yrotation
								JOINT RightHand
								{
									OFFSET -24.65040 0.00000 0.00000
									CHANNELS 3 Zrotation Xrotation Yrotation
									JOINT RightHandThumb1
									{
										OFFSET -5.35114 -0.85590 3.97906
										CHANNELS 3 Zrotation Xrotation Yrotation
										JOINT RightHandThumb2
										{
											OFFSET -4.52789 0.00000 0.00000
											CHANNELS 3 Zrotation Xrotation Yrotation
											JOINT RightHandThumb3
											{
												OFFSET -2.46976 0.00000 0.00000
												CHANNELS 3 Zrotation Xrotation Yrotation
												End site
												{
													OFFSET 0.00000 0.00000 0.00000
												}
											}
										}
									}
									JOINT RightHandIndex1
									{
										OFFSET -14.26970 0.00000 2.88139
										CHANNELS 3 Zrotation Xrotation Yrotation
										JOINT RightHandIndex2
										{
											OFFSET -5.48836 0.00000 0.00000
											CHANNELS 3 Zrotation Xrotation Yrotation
											JOINT RightHandIndex3
											{
												OFFSET -3.01859 0.00000 0.00000
												CHANNELS 3 Zrotation Xrotation Yrotation
												End site
												{
													OFFSET 0.00000 0.00000 0.00000
												}
											}
										}
									}
									JOINT RightHandMiddle1
									{
										OFFSET -14.26970 0.00000 -0.09147
										CHANNELS 3 Zrotation Xrotation Yrotation
										JOINT RightHandMiddle2
										{
											OFFSET -6.17441 0.00000 0.00000
											CHANNELS 3 Zrotation Xrotation Yrotation
											JOINT RightHandMiddle3
											{
												OFFSET -3.56743 0.00000 0.00000
												CHANNELS 3 Zrotation Xrotation Yrotation
												End site
												{
													OFFSET 0.00000 0.00000 0.00000
												}
											}
										}
									}
									JOINT RightHandRing1
									{
										OFFSET -12.69180 0.00000 -3.06433
										CHANNELS 3 Zrotation Xrotation Yrotation
										JOINT RightHandRing2
										{
											OFFSET -5.62556 0.00000 0.00000
											CHANNELS 3 Zrotation Xrotation Yrotation
											JOINT RightHandRing3
											{
												OFFSET -3.56744 0.00000 0.00000
												CHANNELS 3 Zrotation Xrotation Yrotation
												End site
												{
													OFFSET 0.00000 0.00000 0.00000
												}
											}
										}
									}
									JOINT RightHandPinky1
									{
										OFFSET -11.11390 0.00000 -6.03719
										CHANNELS 3 Zrotation Xrotation Yrotation
										JOINT RightHandPinky2
										{
											OFFSET -4.52789 0.00000 0.00000
											CHANNELS 3 Zrotation Xrotation Yrotation
											JOINT RightHandPinky3
											{
												OFFSET -2.46976 0.00000 0.00000
												CHANNELS 3 Zrotation Xrotation Yrotation
												End site
												{
													OFFSET 0.00000 0.00000 0.00000
												}
											}
										}
									}
								}
							}
						}
					}
					JOINT LeftShoulder
					{
						OFFSET 0.01000 7.91373 5.19711
						CHANNELS 3 Zrotation Xrotation Yrotation
						JOINT LeftArm
						{
							OFFSET 18.41580 0.00000 0.00000
							CHANNELS 3 Zrotation Xrotation Yrotation
							JOINT LeftForeArm
							{
								OFFSET 29.11090 0.00000 0.00000
								CHANNELS 3 Zrotation Xrotation Yrotation
								JOINT LeftHand
								{
									OFFSET 24.65040 0.00000 0.00000
									CHANNELS 3 Zrotation Xrotation Yrotation
									JOINT LeftHandThumb1
									{
										OFFSET 5.35114 -0.85590 3.97906
										CHANNELS 3 Zrotation Xrotation Yrotation
										JOINT LeftHandThumb2
										{
											OFFSET 4.52789 0.00000 0.00000
											CHANNELS 3 Zrotation Xrotation Yrotation
											JOINT LeftHandThumb3
											{
												OFFSET 2.46977 0.00000 0.00000
												CHANNELS 3 Zrotation Xrotation Yrotation
												End site
												{
													OFFSET 0.00000 0.00000 0.00000
												}
											}
										}
									}
									JOINT LeftHandIndex1
									{
										OFFSET 14.26970 0.00000 2.88139
										CHANNELS 3 Zrotation Xrotation Yrotation
										JOINT LeftHandIndex2
										{
											OFFSET 5.48836 0.00000 0.00000
											CHANNELS 3 Zrotation Xrotation Yrotation
											JOINT LeftHandIndex3
											{
												OFFSET 3.01859 0.00000 0.00000
												CHANNELS 3 Zrotation Xrotation Yrotation
												End site
												{
													OFFSET 0.00000 0.00000 0.00000
												}
											}
										}
									}
									JOINT LeftHandMiddle1
									{
										OFFSET 14.26970 0.00000 -0.09147
										CHANNELS 3 Zrotation Xrotation Yrotation
										JOINT LeftHandMiddle2
										{
											OFFSET 6.17440 0.00000 0.00000
											CHANNELS 3 Zrotation Xrotation Yrotation
											JOINT LeftHandMiddle3
											{
												OFFSET 3.56744 0.00000 0.00000
												CHANNELS 3 Zrotation Xrotation Yrotation
												End site
												{
													OFFSET 0.00000 0.00000 0.00000
												}
											}
										}
									}
									JOINT LeftHandRing1
									{
										OFFSET 12.69180 0.00000 -3.06433
										CHANNELS 3 Zrotation Xrotation Yrotation
										JOINT LeftHandRing2
										{
											OFFSET 5.62556 0.00000 0.00000
											CHANNELS 3 Zrotation Xrotation Yrotation
											JOINT LeftHandRing3
											{
												OFFSET 3.56744 0.00000 0.00000
												CHANNELS 3 Zrotation Xrotation Yrotation
												End site
												{
													OFFSET 0.00000 0.00000 0.00000
												}
											}
										}
									}
									JOINT LeftHandPinky1
									{
										OFFSET 11.11390 0.00000 -6.03719
										CHANNELS 3 Zrotation Xrotation Yrotation
										JOINT LeftHandPinky2
										{
											OFFSET 4.52789 0.00000 0.00000
											CHANNELS 3 Zrotation Xrotation Yrotation
											JOINT LeftHandPinky3
											{
												OFFSET 2.46976 0.00000 0.00000
												CHANNELS 3 Zrotation Xrotation Yrotation
												End site
												{
													OFFSET 0.00000 0.00000 0.00000
												}
											}
										}
									}
								}
							}
						}
					}
					JOINT pCube4
					{
						OFFSET 0.00000 10.91090 1.10792
						CHANNELS 3 Zrotation Xrotation Yrotation
						End site
						{
							OFFSET 0.00000 0.00000 0.00000
						}
					}
				}
			}
		}
	}
	JOINT RightUpLeg
	{
		OFFSET -9.98441 0.00000 0.00000
		CHANNELS 3 Zrotation Xrotation Yrotation
		JOINT RightLeg
		{
			OFFSET 0.00000 -42.11790 0.00000
			CHANNELS 3 Zrotation Xrotation Yrotation
			JOINT RightFoot
			{
				OFFSET 0.00000 -45.00020 -0.00001
				CHANNELS 3 Zrotation Xrotation Yrotation
				JOINT RightForeFoot
				{
					OFFSET 0.00000 -3.74820 0.00000
					CHANNELS 3 Zrotation Xrotation Yrotation
					JOINT RightToeBase
					{
						OFFSET 0.00000 0.06325 14.43120
						CHANNELS 3 Zrotation Xrotation Yrotation
						End site
						{
							OFFSET 0.00000 0.00000 0.00000
						}
					}
				}
			}
		}
	}
	JOINT LeftUpLeg
	{
		OFFSET 9.98441 0.00000 0.00000
		CHANNELS 3 Zrotation Xrotation Yrotation
		JOINT LeftLeg
		{
			OFFSET 0.00000 -42.11800 0.00000
			CHANNELS 3 Zrotation Xrotation Yrotation
			JOINT LeftFoot
			{
				OFFSET 0.00000 -45.00070 0.00000
				CHANNELS 3 Zrotation Xrotation Yrotation
				JOINT LeftForeFoot
				{
					OFFSET 0.00000 -3.74824 0.00000
					CHANNELS 3 Zrotation Xrotation Yrotation
					JOINT LeftToeBase
					{
						OFFSET 0.00000 0.06325 14.43110
						CHANNELS 3 Zrotation Xrotation Yrotation
						End site
						{
							OFFSET 0.00000 0.00000 0.00000
						}
					}
				}
			}
		}
	}
}
MOTION
Frames: 4
Frame Time: 0.050000
0.035258637511707255 0.04099105634954464 -0.01775865964475441 -0.004624769806734359 0.005960878339555723 -0.004630944650908553 0.3975829761110309 1.4527893996102526 -1.4123374338821677 -0.50906379377415 3.821262741909949 0.3451368087188796 -0.6761674887364219 -1.6715791471016874 0.7158830026118812 -0.9356269964734657 -0.5283602097953667 -0.4119517722102532 -0.39281655355164846 12.818177339977785 0.2064791706627716 0.6792311708662039 -0.6063516175362075 -0.08280886672518431 0.7513736379865098 -16.173692765495527 -0.09609008303597588 -2.7829948493689094 1.3909939091447292 -15.28362595812725 72.37761212069167 14.742508035459105 5.197683131351494 13.297913285719936 5.609174658912107 89.50963425561942 23.690366372586052 -0.3509169804346104 -5.01665017719636 4.510808073777011 -0.10846025393755089 -1.5836522029424354 -0.027007490580803963 0.00614318445108424 -56.24803434309345 -0.04545879288203711 -0.046203331291763475 -56.243614800760966 -38.80093547191562 0.031862490669444944 0.0341842337441898 0.04829976016891043 -0.016653595903484617 -0.004098410972536191 0.015137152860234157 0.03529342754681813 0.04698718972372877 -36.71265601061642 0.03987268328991469 0.04887343047215235 -0.03577768645596443 -0.02234525896826825 0.04261554131910622 0.009371524319950017 -0.029749327853133414 -0.03373185286692079 -19.762461430622334 0.006399293824539046 -0.0033232007463374386 -0.04569506316650666 -0.002021241894434823 0.015315738357968258 0.02194811243486013 0.006032465988638055 -0.015559377484589012 24.037399801382172 -0.049122138698192465 -0.010466270277570884 28.824218003718727 -0.03290728626231974 0.04727680002568342 28.913558891334688 -0.0028260491064444502 0.01743073899659597 5.46602972811026 1.5436087899240192 14.128014097523394 -76.89325665164368 26.50937837593829 -8.48026293469944 -58.94098063626096 15.532931136604748 -103.388255697445 -21.290281962606358 0.5587330671351889 0.9805363240908492 -0.4968443637698027 0.0943733581191816 -8.100224251642718 -0.03082109169732171 -0.024687467365907618 44.56343962366852 -0.014317701312426054 -0.019181835757001567 44.598344138218266 12.496931332712153 -0.024907586221165203 0.036734308437664585 -0.010428338463984999 -0.03507638639035518 -0.002079392584412122 -0.023823835597545924 -0.014752331042793413 0.0017811283078084143 11.11899432376848 0.02792689639377997 0.0037132194203893056 0.04992964078710096 0.04656397921905763 0.03718572427729191 -0.039550609223771634 -0.0025664429429360877 -0.003688100399751743 4.750819432439505 -0.0017738063917278311 -0.04232410188265927 -0.02059164241844895 -0.013379941452098035 -0.021739306612484324 0.03867723419977483 0.0410515478204972 -0.015146858746004521 -5.602622007308561 0.03497669285727488 0.005147634894922607 -6.733521510566686 0.035574129299756944 0.008568127915125122 -6.754691923594653 0.00634214192921619 0.040391248312473746 -0.019098046858038425 0.042663527203139956 -0.03879498040403765 8.091237932798174 3.50888415382935 -19.234419617331973 -0.01920005492307049 10.422154508446173 -0.02630083942920992 -5.596182212114917 -15.67461083974045 3.1591600569882243 0.0024244701889713123 -0.013164765571013265 0.004402303252924832 0.03383284555240341 4.700414895501531 -0.04190374691483872 12.430774721933329 -8.210123407357226 6.873659923030119 0.0063832146987475484 46.38259691801207 -0.03008486491545552 -4.303763806278639 -14.760614863327634 -3.8110468690074666 -0.009518433183300801 0.03775779158183947 -0.04782030707666982 -0.006006075162334869 -10.70230848343509 -0.008049605326658247 
-0.00019043179875530026 0.013128232661498464 0.012039070836927556 0.04630843706353022 -0.029068831067751356 0.04690025203787693 -0.06324938507255884 1.4516440128788517 -1.3309180414943642 -0.5034299051541059 3.802824608171722 0.35219244665294297 -0.6896189466560314 -1.6526254112818837 0.7363788940653084 -0.8952857744569189 -0.5296948211865337 -0.4129922842037131 -0.3596939977843798 12.987231104562849 0.31040918433254094 0.6848845674303097 -0.6451161138041422 0.025114986498537904 0.7432553212036046 -16.19802471944333 -0.07124904425456027 -2.252752233940055 1.2502705594734622 -15.169492823382232 71.9166810630477 14.904260092082048 5.152962612387422 12.52849080194111 6.122494129306876 87.54457950861395 24.07386284805204 -0.2933340537182608 -4.666553396402507 4.550834081880518 -0.08458996989121711 -1.5438558898039583 -0.03918491515887113 -0.009640779023111697 -56.18506058124414 -0.02013318038146185 -0.021649357545103793 -56.1948909335207 -38.781786491095474 -0.02495666221800683 -0.008416412119769888 0.006088613563645197 -0.010174172630790916 -0.0032278570247995814 -0.030185266554505423 -0.021284591084489966 -0.013686541641792008 -36.66490033257196 -0.041544523348180463 0.0028267186737779065 0.0007311588080869697 0.040595220158362255 0.03720901738150277 -0.007130856382715857 0.03248704981129459 0.04754311431907716 -19.77316821739529 -0.00014025657794426556 -0.005038668742111559 0.043529156642377366 -0.025272548954178284 0.04779965139688246 0.04147270193546722 0.047688211375363866 0.021027242498075478 24.086552152035686 0.003871692699518298 0.03509456877044167 28.902153115716395 0.027369384500236044 0.0488832077731587 28.867063993236872 -0.046740852628258056 -0.0240074868701191 5.25641744415153 1.4824461812913448 14.154610121869352 -76.85230103271901 26.962939767551447 -8.734106755483918 -55.62552013350811 14.6229193640005 -102.57250361227901 -21.150081501198656 0.9428950239698634 0.8599222871771389 -0.5002635384553785 0.07267566565920253 -8.096689698888351 0.01173974712948751 0.02026331987181893 44.54060185684139 -0.04206621899498573 -0.04113436333865651 44.53862367583329 12.442572914479907 -0.018275748381750386 0.00038254357766702993 -0.03214997936822261 -0.010041073600347472 0.043683754129715535 -0.037013292803998135 0.014306536375736712 0.00531259451238508 11.092613293412743 -0.045030062979899046 -0.03270445535984552 -0.0157688026468345 0.02142425224993746 -0.003410887624705764 -0.009426381699951053 0.03118997189007881 0.009526806260269851 4.728488532516451 0.0450181562438873 -0.030397619559535835 -0.007851263890034708 -0.03207122825828784 -0.041464446893243585 -0.00479787059050871 0.012072704428298905 -0.02976189235097501 -5.573858984405682 -0.009718094086084851 -0.0029779491975330434 -6.708868627552057 0.0024282645812957505 0.029322428142194115 -6.71397334673601 -0.04549191539663911 -0.016536701268501135 -0.03218075012027081 0.03748269864734002 -0.025161815713595288 8.003870934475117 3.531992947078337 -19.235870399058406 -0.00582884825342773 10.376047162366815 0.039174970120297074 -5.664973717756482 -15.62020172568062 3.1609306414185747 -0.01587069748989668 -0.048907464215857135 0.004959007694594497 0.029508739418824023 4.652731347734622 -0.022059253062690257 12.453198961193944 -8.253137097359225 6.921779067252209 -0.04613150186310636 46.41599128252262 -0.03501544782705295 -4.366906538646178 -14.75087298028889 -3.8829264450792023 -0.01832995835594223 0.03066034644504379 -0.019771472585835313 0.026840370342252937 -10.74051812895598 0.036672149709412516 
0.009749815330398598 -0.00511916331308711 -0.02371136811359666 -0.041217991476061894 -0.022465339100550794 0.03995829529457154 -0.47072395738055917 1.4695640254851294 -1.2466407388028449 -0.43590957396133106 3.9284286408599627 0.2687968395889708 -0.7006027754600599 -1.6917637173807807 0.612038770227054 -0.8743005277680411 -0.5113360933960954 -0.4223690922440069 -0.4036063418293542 13.254367102598225 0.3211330311196789 0.7009983627131304 -0.6886659645637019 0.1859090899223215 0.7091606254692259 -16.161740640546185 -0.012233114878350798 -1.84335801134669 1.1086974986062037 -15.19606745451338 71.39245101658766 14.279532031636984 5.227762650882198 12.352314371504425 7.022813069681344 85.04251397166738 24.73149250647945 -0.29746602913786147 -4.234169482669317 4.577884909582007 -0.12441324894366221 -1.5865116142576632 0.0427831588480996 0.017669553386655493 -56.249189327325126 0.018288546831505516 0.012806520156640877 -56.21793591921833 -38.80690353646374 -0.02014916525220425 -0.010039000715952758 0.04890057522294823 -0.005455864527098085 0.014103249903018355 -0.014578717406469238 0.03142521597408288 0.04772375228021446 -36.71264685673595 0.02913358253750552 -0.027870345105381972 0.019510668667571843 0.043709516144843856 0.039099947764874146 -0.02373897118154826 -0.0034553237167528434 0.016885994177790742 -19.76291976458365 0.009401664435353568 0.048165364832779285 0.04993485072320364 0.005744454463397163 0.044143904471376005 -0.034741650757583134 -0.029378141533051426 0.013174074602232988 24.085836746312733 0.011051967385030682 -0.03267686822656139 28.87917723815886 -0.020399824175845307 0.0064823296223398275 28.900830634178252 -0.019879003553272354 0.010111920857619838 4.942267586375422 1.371483248187896 14.146858571810036 -76.7148309074654 26.92285816641904 -9.196581235664688 -51.80014577612219 13.658456382076759 -101.79857536929349 -21.091556080952905 1.7227586236551629 0.21090374917746202 -0.5157270540565169 0.1104391467930395 -8.082859925472865 0.00991945643617082 0.011742912149808665 44.52911522377901 0.030256035947295524 -0.011952320612852563 44.59711246007283 12.414077538169984 0.022660452716362144 0.006580776683647301 -0.03635483374669401 -0.031417025242118535 0.038946132317201225 -0.0093517712357317 0.03926896315680859 -0.0320591438855527 11.09887206717026 -0.046908872490575085 0.03004440756845356 0.007485933051186123 0.008814440789219469 -0.026456205372181296 -0.0029686585327617964 -0.02650103466418412 0.038104072744772365 4.791939135911133 0.02049371464792043 0.03549788298502481 0.02072078521342085 -0.00745717350639974 0.010218692721399263 0.03403603037825191 0.0007502228609512792 0.0354479476329161 -5.568996595663216 -0.007618827137090869 0.04881951491314161 -6.726303795676924 0.036982469712203585 -0.027615678653180424 -6.751713193548794 -0.039095149061363445 0.020711763900491276 0.015651464082916768 -0.03370365047652916 -0.010352783223852864 8.03323573878696 3.4731167817481734 -19.218781763880177 0.029768732357497295 10.387516906760174 0.03048554847352825 -5.648434612106104 -15.641820563888245 3.185494115484662 0.020445961195427652 -0.0050394966596760534 -0.010885042694649657 0.035280320535097796 4.738392895360905 -0.03445179142665293 12.417382612412288 -8.249243481446781 6.908745819661818 0.032477397744797194 46.40795620922608 -0.004755708028886398 -4.314643470015975 -14.775463588926367 -3.8194860449078836 -0.012456659967294358 0.009521166313137283 0.0010712295318208369 0.01412285459490012 -10.726612209609524 0.025874118244320034 
0.014314410722927724 0.037456245205635744 0.022429886439538707 0.03454365115902828 -0.018460134346946138 0.02763065476088732 -0.6623652876437153 1.4539909724958555 -1.1672255926406496 -0.46738412463592605 3.9816421724636277 0.299926992982935 -0.7767978823557354 -1.7106195185720043 0.5149610567006278 -0.795254052022544 -0.5211083541103532 -0.4500497702410514 -0.3983955886435152 13.415650021742636 0.3818102315518846 0.6387080069840587 -0.6988536622616456 0.3391918854941416 0.7613535720906838 -16.32395243349445 -0.07137739881829132 -1.742362627933426 1.0057000726887118 -15.169242447882842 71.36021109546543 12.418467515124341 5.552195696967527 12.239774946116738 8.314559775038495 82.39470881806744 25.121382214573526 -0.2390998052233576 -3.620336995126011 4.502923298921802 -0.12718365518527452 -1.551577550035642 -0.03693936796395515 -0.027839895644650205 -56.28103068067382 0.04105560829580016 -0.009358319046241199 -56.208425460057796 -38.77916522537663 -0.003842027074797991 0.03354838110848655 0.04413558868345667 -0.03748115409161107 0.0008706050325852856 0.0073980092011486686 0.007057074565288683 -0.030108796019407504 -36.715095337674015 -0.003457472031141492 -0.01948851969252724 -0.011904812287057307 0.02969506088958607 -0.01543611302181116 0.04540823256057472 -0.014225757557495035 -0.04020241251725723 -19.73639592857671 0.006435285834459319 -0.03809154516434659 -0.01467884764925738 0.009121400413534576 -0.015950206918193433 0.017472717479142648 0.02056230790731684 0.00014360819045170027 24.02413749481807 -0.010246010622990947 0.025706774708503462 28.840498157368444 -0.02972073958784065 -0.014866923593260053 28.82188297987937 -0.025980579753432573 0.004515057765256902 4.88530726224306 1.413112192698736 14.271752301583387 -76.60160586435103 26.845620895679907 -9.947430952520582 -47.4945485117866 12.527119633608281 -100.92214433212061 -21.152432051890553 2.312353890717678 -0.2449808541281756 -0.4414719969659406 0.09276294989118433 -8.086822471778536 -0.022169365156576668 0.01329348213345813 44.590936541147514 0.03991973082133295 0.034561838772108194 44.605672085014355 12.491263249963596 -0.0005212891821030351 0.03758523964143168 0.02022261762755035 0.036554084858564234 0.017402238673613332 -0.003377081131174369 0.008167901119529884 0.008838500204576882 11.060469284938266 -0.027698829735190365 0.04471033467109496 0.010791592591346953 0.025357778668826353 0.04677675787779204 -0.04078341345682998 0.03241239467836319 0.00793419227257133 4.788770889660247 0.03325494758470472 0.012923328672396173 -0.04286125912795984 -0.025421390041185266 0.015728727220718473 -0.02822064744973269 -0.018888258390148703 -0.02846647572474821 -5.642600739198146 0.035143557116048586 0.03450328997917314 -6.758849284527898 0.04062523316134059 0.008185633987914857 -6.7115667368748095 0.011751681448428876 0.0003806628155335823 -0.01507469722277585 0.008394116741614168 -0.005098437566687228 8.034723371361407 3.534907339160238 -19.204248646900957 -0.031650653549502104 10.388861263203145 0.03860137024304728 -5.626062580719711 -15.653562913407692 3.1892834294038113 0.04364514752823905 0.016889404060707745 0.014981980542502535 -0.002462641159742781 4.67836187227649 0.008676196986655714 12.491894898686672 -8.249242541816832 6.882172500412628 -0.030898927926185114 46.36816091385024 -0.001305997460142925 -4.342555621902365 -14.706028707245517 -3.8586529334550823 0.01182521240538598 -0.004447743962030888 -0.015373574578097605 0.031022249900751444 -10.700755181612767 0.005129823780291097 
